<svg width="476" height="1006" viewBox="0 0 476 1006" fill="none" xmlns="http://www.w3.org/2000/svg">
<mask id="path-1-outside-1_3_673" maskUnits="userSpaceOnUse" x="-0.453857" y="-0.605469" width="477" height="1007" fill="black">
<rect fill="white" x="-0.453857" y="-0.605469" width="477" height="1007"/>
<path d="M474.138 637.724C474.138 769.893 410.221 832.728 269.385 843.561V1003.9H201.134V844.644C116.632 842.478 36.4645 831.644 1.79725 818.644V734.143C44.0479 749.309 118.799 762.31 201.134 764.476V492.555C59.2149 455.721 13.7141 422.137 13.7141 294.302C13.7141 177.3 73.2984 111.216 201.134 102.549V1.79727H269.385V102.549C334.386 105.799 406.971 116.632 437.304 127.466V207.634C401.554 194.634 332.219 183.8 269.385 180.55V426.471C409.137 462.221 474.138 509.889 474.138 637.724ZM99.2989 294.302C99.2989 354.97 112.299 382.053 201.134 409.137V180.55C128.549 184.884 99.2989 208.717 99.2989 294.302ZM269.385 762.31C350.636 754.726 388.554 724.392 388.554 645.308C388.554 565.14 364.72 539.139 269.385 510.972V762.31Z"/>
</mask>
<path d="M269.385 843.561L269.247 841.769L267.588 841.897V843.561H269.385ZM269.385 1003.9V1005.69H271.182V1003.9H269.385ZM201.134 1003.9H199.337V1005.69H201.134V1003.9ZM201.134 844.644H202.931V842.893L201.18 842.848L201.134 844.644ZM1.79726 818.644H-1.52588e-05V819.889L1.16619 820.327L1.79726 818.644ZM1.79726 734.143L2.40449 732.451L-1.52588e-05 731.588V734.143H1.79726ZM201.134 764.476L201.087 766.273L202.931 766.322V764.476H201.134ZM201.134 492.555H202.931V491.165L201.585 490.816L201.134 492.555ZM201.134 102.549L201.255 104.342L202.931 104.229V102.549H201.134ZM201.134 1.79724V0H199.337V1.79724H201.134ZM269.385 1.79724H271.182V0H269.385V1.79724ZM269.385 102.549H267.588V104.259L269.295 104.344L269.385 102.549ZM437.304 127.466H439.102V126.199L437.909 125.773L437.304 127.466ZM437.304 207.634L436.69 209.323L439.102 210.2V207.634H437.304ZM269.385 180.55L269.478 178.755L267.588 178.658V180.55H269.385ZM269.385 426.471H267.588V427.866L268.94 428.212L269.385 426.471ZM201.134 409.137L200.61 410.856L202.931 411.564V409.137H201.134ZM201.134 180.55H202.931V178.642L201.027 178.756L201.134 180.55ZM269.385 762.31H267.588V764.283L269.552 764.099L269.385 762.31ZM269.385 510.972L269.894 509.249L267.588 508.567V510.972H269.385ZM474.138 637.724H472.341C472.341 703.534 456.431 751.746 423.304 784.873C390.151 818.026 339.46 836.368 269.247 841.769L269.385 843.561L269.523 845.353C340.146 839.92 391.831 821.429 425.846 787.414C459.887 753.373 475.936 704.083 475.936 637.724H474.138ZM269.385 843.561H267.588V1003.9H269.385H271.182V843.561H269.385ZM269.385 1003.9V1002.1H201.134V1003.9V1005.69H269.385V1003.9ZM201.134 1003.9H202.931V844.644H201.134H199.337V1003.9H201.134ZM201.134 844.644L201.18 842.848C158.987 841.766 117.883 838.52 83.0126 833.925C48.1039 829.325 19.5625 823.386 2.42831 816.961L1.79726 818.644L1.16619 820.327C18.6993 826.902 47.5755 832.88 82.5429 837.489C117.548 842.102 158.779 845.356 201.088 846.441L201.134 844.644ZM1.79726 818.644H3.59452V734.143H1.79726H-1.52588e-05V818.644H1.79726ZM1.79726 734.143L1.19002 735.834C43.6802 751.087 118.637 764.103 201.087 766.273L201.134 764.476L201.181 762.68C118.962 760.516 44.4157 747.532 2.40449 732.451L1.79726 734.143ZM201.134 764.476H202.931V492.555H201.134H199.337V764.476H201.134ZM201.134 492.555L201.585 490.816C130.598 472.392 84.2018 454.876 55.4723 426.28C26.8625 397.804 15.5114 358.043 15.5114 294.302H13.7141H11.9168C11.9168 358.396 23.3161 399.345 52.9365 428.828C82.4371 458.191 129.75 475.885 200.682 494.295L201.134 492.555ZM13.7141 294.302H15.5114C15.5114 236.096 30.3287 190.834 60.7835 159.043C91.2456 127.245 137.609 108.657 201.255 104.342L201.134 102.549L201.012 100.756C136.824 105.108 89.4768 123.895 58.1879 156.557C26.8917 189.225 11.9168 235.506 11.9168 294.302H13.7141ZM201.134 102.549H202.931V1.79724H201.134H199.337V102.549H201.134ZM201.134 1.79724V3.59454H269.385V1.79724V0H201.134V1.79724ZM269.385 1.79724H267.588V102.549H269.385H271.182V1.79724H269.385ZM269.385 102.549L269.295 104.344C334.259 107.592 406.625 118.417 436.7 129.159L437.304 127.466L437.909 125.773C407.316 114.848 334.513 104.006 269.475 100.754L269.385 102.549ZM437.304 127.466H435.507V207.634H437.304H439.102V127.466H437.304ZM437.304 207.634L437.919 205.945C401.919 192.854 332.375 182.009 269.478 178.755L269.385 180.55L269.292 182.345C332.064 185.592 401.189 196.414 436.69 209.323L437.304 207.634ZM269.385 180.55H267.588V426.471H269.385H271.182V180.55H269.385ZM269.385 426.471L268.94 428.212C338.761 446.073 389.559 466.837 422.924 498.862C456.19 530.792 472.341 574.136 472.341 637.724H474.138H475.936C475.936 573.477 459.586 529.07 425.413 496.269C391.34 463.564 339.761 442.619 269.83 424.73L269.385 426.471ZM99.2989 294.302H97.5016C97.5016 324.701 100.737 347.192 115.506 365.444C130.222 383.631 156.141 397.299 200.61 410.856L201.134 409.137L201.658 407.418C157.292 393.892 132.293 380.476 118.3 363.183C104.361 345.956 101.096 324.571 101.096 294.302H99.2989ZM201.134 409.137H202.931V180.55H201.134H199.337V409.137H201.134ZM201.134 180.55L201.027 178.756C164.643 180.928 138.578 187.998 121.696 205.717C104.815 223.435 97.5016 251.392 97.5016 294.302H99.2989H101.096C101.096 251.627 108.408 224.875 124.298 208.197C140.187 191.52 165.04 184.505 201.241 182.344L201.134 180.55ZM269.385 762.31L269.552 764.099C310.311 760.295 340.594 750.761 360.668 731.933C380.802 713.048 390.351 685.123 390.351 645.308H388.554H386.756C386.756 684.577 377.346 711.361 358.209 729.311C339.012 747.316 309.71 756.741 269.218 760.52L269.385 762.31ZM388.554 645.308H390.351C390.351 605.094 384.387 577.99 366.061 557.443C347.816 536.987 317.57 523.335 269.894 509.249L269.385 510.972L268.876 512.696C316.535 526.777 345.873 540.208 363.379 559.836C380.804 579.373 386.756 605.353 386.756 645.308H388.554ZM269.385 510.972H267.588V762.31H269.385H271.182V510.972H269.385Z" fill="url(#paint0_linear_3_673)" mask="url(#path-1-outside-1_3_673)"/>
<defs>
<linearGradient id="paint0_linear_3_673" x1="245.546" y1="-132.605" x2="245.546" y2="946.395" gradientUnits="userSpaceOnUse">
<stop stop-color="#18D100"/>
<stop offset="1" stop-color="#0D6B00" stop-opacity="0"/>
</linearGradient>
</defs>
</svg>
