<svg width="22" height="20" viewBox="0 0 22 20" fill="none" xmlns="http://www.w3.org/2000/svg">
<path d="M1.25688 0.12215C1.07005 0.190088 0.69638 0.495817 0.458592 0.801544L0 1.34506V7.62947C0 13.6421 0.0169849 13.9478 0.339698 14.4744C0.917184 15.4085 1.63055 15.5784 4.85768 15.5784H7.69415L7.57526 16.2578C7.5243 16.6315 7.38843 17.3278 7.28652 17.7864L7.09968 18.6357H6.11456C4.85768 18.6357 4.58592 18.7376 4.58592 19.2471V19.6548H10.8703H17.1547V19.2471C17.1547 18.7376 16.883 18.6357 15.6261 18.6357H14.641L14.4541 17.7864C14.3522 17.3278 14.2163 16.6315 14.1654 16.2578L14.0465 15.5784H16.883C20.1101 15.5784 20.8235 15.4085 21.401 14.4744C21.7237 13.9478 21.7407 13.6421 21.7407 7.61248V1.31109L21.1632 0.665667L20.5857 0.0372257L11.0911 0.00325584C5.87677 -0.0137291 1.4607 0.0372257 1.25688 0.12215ZM20.3988 1.413L20.8065 1.85461L20.8574 6.50847L20.9084 11.1623H10.8873C0.968138 11.1623 0.849244 11.1623 0.849244 10.8226C0.849244 10.5169 0.968138 10.4829 2.27597 10.4829C3.43095 10.4829 3.71969 10.432 3.80461 10.2112C4.00843 9.65067 3.58381 9.46384 2.17407 9.46384H0.832259L0.883214 5.65922C0.934169 1.88858 0.934169 1.83762 1.34181 1.413L1.74944 0.971394H10.8703H19.9912L20.3988 1.413ZM20.8914 12.5891C20.8914 13.3194 20.5177 14.0498 20.0252 14.3045C19.3118 14.6782 2.42884 14.6782 1.71547 14.3045C1.22291 14.0498 0.849244 13.3194 0.849244 12.5891V12.1814H10.8703H20.8914V12.5891ZM13.1973 16.7673C13.3162 17.3788 13.452 18.0412 13.503 18.262L13.5879 18.6357H10.8703C8.33958 18.6357 8.13576 18.6187 8.22069 18.3299C8.25465 18.1771 8.39053 17.5826 8.49244 17.0221C8.59435 16.4616 8.71325 15.9011 8.74722 15.7822C8.81516 15.6124 9.3247 15.5784 10.9043 15.6124L12.9765 15.6633L13.1973 16.7673Z" fill="#FE0149"/>
<path d="M9.71536 3.21336C9.74933 3.80783 9.83425 3.94371 10.106 3.94371C10.3778 3.94371 10.4627 3.80783 10.4967 3.21336C10.5476 2.55095 10.5306 2.49999 10.106 2.49999C9.68139 2.49999 9.6644 2.55095 9.71536 3.21336Z" fill="#FE0149"/>
<path d="M7.98291 3.60398C7.98291 4.07956 8.67929 4.64006 9.08693 4.47021C9.69838 4.23243 9.10391 3.17936 8.35658 3.17936C8.06783 3.17936 7.98291 3.28127 7.98291 3.60398Z" fill="#FE0149"/>
<path d="M11.1591 3.48509C10.5306 4.18147 11.0402 4.80991 11.8045 4.30036C12.382 3.92669 12.399 3.17936 11.8385 3.17936C11.6177 3.17936 11.3119 3.31524 11.1591 3.48509Z" fill="#FE0149"/>
<path d="M7.5243 4.82693C7.40541 4.8609 7.3035 5.09868 7.3035 5.31949C7.3035 5.67617 7.37144 5.72713 7.98289 5.72713C8.44148 5.72713 8.71324 5.6422 8.7642 5.47235C8.985 4.92884 8.22068 4.53818 7.5243 4.82693Z" fill="#FE0149"/>
<path d="M9.57945 4.92882C9.52849 5.08168 9.69834 6.13475 9.9701 7.28972C10.4966 9.58268 10.7174 9.83745 11.4818 9.1071L11.8894 8.71645L12.365 9.17504C12.9764 9.76951 13.2312 9.75253 13.8936 9.07313C14.556 8.39374 14.573 8.17293 13.9785 7.56148L13.5199 7.0859L13.9106 6.67826C14.59 5.94791 14.3522 5.69314 12.6537 5.26852C10.2928 4.69103 9.69834 4.62309 9.57945 4.92882ZM12.1102 6.16872C12.7386 6.27063 12.9085 6.45746 12.5688 6.66128C12.2631 6.84811 12.3989 7.49354 12.8745 8.00308L13.3331 8.51263L12.6877 7.96911C11.9573 7.35766 11.8384 7.32369 11.5497 7.68037C11.2609 8.03705 11.0911 7.88419 10.9722 7.13685C10.9043 6.78017 10.8024 6.33857 10.7514 6.16872C10.6835 5.89696 10.7344 5.86299 11.0571 5.9649C11.2779 6.01585 11.7535 6.11776 12.1102 6.16872Z" fill="#FE0149"/>
<path d="M8.25462 6.38951C7.88095 6.79715 7.96588 7.32368 8.42447 7.39162C8.84909 7.45956 9.39261 6.88208 9.30768 6.45745C9.22276 6.03283 8.6113 5.98188 8.25462 6.38951Z" fill="#FE0149"/>
<path d="M4.24626 9.71858C3.94053 10.0753 4.16133 10.5169 4.61992 10.4489C5.06153 10.398 5.24836 9.83748 4.89168 9.61667C4.58595 9.41286 4.48404 9.42984 4.24626 9.71858Z" fill="#FE0149"/>
<path d="M10.2248 12.7249C10.106 12.8438 10.021 13.1326 10.021 13.3703C10.021 13.9308 10.3098 14.2196 10.8703 14.2196C11.4308 14.2196 11.7195 13.9308 11.7195 13.3703C11.7195 12.8098 11.4308 12.5211 10.8703 12.5211C10.6325 12.5211 10.3437 12.606 10.2248 12.7249Z" fill="#FE0149"/>
</svg>
