<svg width="19" height="19" viewBox="0 0 19 19" fill="none" xmlns="http://www.w3.org/2000/svg">
<path d="M4.41437 0.174828C4.31239 0.27681 4.23954 0.553617 4.23954 0.801289C4.23954 1.23836 4.22498 1.25292 3.20515 1.41318C1.99594 1.60258 1.20922 2.08335 0.52448 3.0449L0.0874133 3.67136L0.0437066 9.84857L0 16.0112L0.364222 16.7105C0.78672 17.5701 1.19465 17.9634 2.05421 18.3422C2.68067 18.6336 2.97205 18.6482 9.33865 18.6482C15.7053 18.6482 15.9966 18.6336 16.6231 18.3422C17.4827 17.9634 17.8906 17.5701 18.3131 16.7105L18.6773 16.0112L18.6336 9.84857L18.5899 3.67136L18.1528 3.0449C17.4681 2.08335 16.6814 1.60258 15.4722 1.41318C14.4523 1.25292 14.4378 1.23836 14.4378 0.801289C14.4378 0.233103 14.2047 0 13.6365 0C13.0537 0 12.8352 0.233103 12.8352 0.830427V1.3112H9.33865H5.84212V0.932409C5.84212 0.305946 5.59445 0 5.06997 0C4.80773 0 4.51635 0.0728455 4.41437 0.174828ZM4.23954 3.77334C4.23954 4.73489 4.45808 5.09911 5.04083 5.09911C5.62359 5.09911 5.84212 4.73489 5.84212 3.77334V2.91378H9.33865H12.8352V3.77334C12.8352 4.73489 13.0537 5.09911 13.6365 5.09911C14.2192 5.09911 14.4378 4.73489 14.4378 3.75877V2.87007L15.1079 2.97205C16.2734 3.13231 16.9145 3.78791 17.133 5.0554L17.235 5.68186H9.33865H1.44232L1.5443 5.0554C1.7774 3.68593 2.52042 2.98662 3.84618 2.92835C4.23954 2.91378 4.23954 2.92835 4.23954 3.77334ZM17.1767 11.3929C17.133 15.2245 17.1184 15.545 16.8416 16.0258C16.6668 16.3026 16.3171 16.6522 16.0403 16.8271C15.545 17.1039 15.2973 17.1184 9.33865 17.1184C3.37998 17.1184 3.13231 17.1039 2.63697 16.8271C2.36016 16.6522 2.01051 16.3026 1.83568 16.0258C1.55887 15.545 1.5443 15.2245 1.50059 11.3929L1.45689 7.28444H9.33865H17.2204L17.1767 11.3929Z" fill="#FE0149"/>
<path d="M3.62765 9.68832C3.5111 9.96513 3.5111 10.14 3.62765 10.4168C3.78791 10.7664 3.86075 10.781 5.04083 10.781C6.22091 10.781 6.29376 10.7664 6.45401 10.4168C6.57056 10.14 6.57056 9.96513 6.45401 9.68832C6.29376 9.33866 6.22091 9.32409 5.04083 9.32409C3.86075 9.32409 3.78791 9.33866 3.62765 9.68832Z" fill="#FE0149"/>
<path d="M8.05659 9.49892C7.9546 9.6009 7.88176 9.84857 7.88176 10.0525C7.88176 10.6499 8.12943 10.781 9.33865 10.781C10.5479 10.781 10.7955 10.6499 10.7955 10.0525C10.7955 9.45521 10.5479 9.32409 9.33865 9.32409C8.66848 9.32409 8.15857 9.39694 8.05659 9.49892Z" fill="#FE0149"/>
<path d="M12.2233 9.68832C12.1067 9.96513 12.1067 10.14 12.2233 10.4168C12.3835 10.7664 12.4564 10.781 13.6365 10.781C14.8165 10.781 14.8894 10.7664 15.0496 10.4168C15.1662 10.14 15.1662 9.96513 15.0496 9.68832C14.8894 9.33866 14.8165 9.32409 13.6365 9.32409C12.4564 9.32409 12.3835 9.33866 12.2233 9.68832Z" fill="#FE0149"/>
<path d="M3.75875 13.8113C3.43824 14.161 3.45281 14.6126 3.77332 14.904C4.16668 15.2682 6.00236 15.2536 6.32288 14.8894C6.64339 14.5397 6.62882 14.0881 6.30831 13.7967C5.91495 13.4325 4.07927 13.4471 3.75875 13.8113Z" fill="#FE0149"/>
<path d="M8.05658 13.7239C7.76521 14.0153 7.83805 14.8312 8.15857 15.006C8.52279 15.1954 10.1545 15.1954 10.5187 15.006C10.7081 14.904 10.7955 14.7001 10.7955 14.3504C10.7955 14.0007 10.7081 13.7968 10.5187 13.6948C10.1254 13.4908 8.27512 13.5054 8.05658 13.7239Z" fill="#FE0149"/>
<path d="M12.3544 13.8113C12.0339 14.161 12.0485 14.6126 12.369 14.904C12.7623 15.2682 14.598 15.2536 14.9185 14.8894C15.2391 14.5397 15.2245 14.0881 14.904 13.7967C14.5106 13.4325 12.6749 13.4471 12.3544 13.8113Z" fill="#FE0149"/>
</svg>
