<svg width="23" height="22" viewBox="0 0 23 22" fill="none" xmlns="http://www.w3.org/2000/svg">
<path d="M7.98 0.278261C4.17133 1.38122 1.24159 4.39714 0.259263 8.22304C-0.188816 9.92918 -0.0337115 13.083 0.552237 14.7202C1.67243 17.8567 4.24027 20.4073 7.41128 21.5103C8.94509 22.0445 12.1678 22.1652 13.7706 21.7516C17.6999 20.7348 20.8019 17.6672 21.7843 13.8068C22.1462 12.4108 22.1462 9.55004 21.7843 8.1541C21.6464 7.58539 21.1811 6.46519 20.7675 5.68967C20.0609 4.3282 20.0436 4.2765 20.3883 4.2248C20.6641 4.19033 20.7675 4.05246 20.7675 3.74225C20.7675 3.32864 20.733 3.31141 19.5611 3.31141H18.3547L18.303 4.55224C18.2513 5.77584 18.2686 5.81031 18.6649 5.81031C18.8718 5.81031 19.1475 5.72414 19.2509 5.62074C19.4922 5.37946 20.4056 7.08561 20.7675 8.51601C21.0949 9.79131 21.0949 12.1868 20.7675 13.4621C19.8713 16.8744 16.9588 19.8041 13.512 20.7175C12.2023 21.0622 9.85848 21.0622 8.54871 20.7175C5.10196 19.8041 2.18945 16.8744 1.29329 13.4621C0.965848 12.1696 0.965848 9.79131 1.29329 8.49878C2.17221 5.10372 5.01579 2.24291 8.46255 1.26059C8.99679 1.10548 10.1687 0.950378 11.0476 0.933146C12.6504 0.898678 12.6676 0.898678 12.6676 0.467833C12.6676 0.0369892 12.6676 0.0369892 10.858 0.00252151C9.54827 -0.0147133 8.75552 0.0542221 7.98 0.278261Z" fill="#FE0149"/>
<path d="M13.5465 0.571226C13.3914 0.950369 13.8394 1.41568 14.2186 1.26058C14.3909 1.20888 14.4771 1.00207 14.4426 0.778031C14.3737 0.278252 13.7188 0.140381 13.5465 0.571226Z" fill="#FE0149"/>
<path d="M8.80724 2.98393C7.49747 3.3286 6.48068 3.93179 6.41174 4.36263C6.32557 4.96581 6.80812 4.96581 8.04895 4.37987C9.13468 3.86285 9.35872 3.82838 11.0304 3.82838C12.7021 3.82838 12.9261 3.86285 14.0118 4.37987C15.5456 5.10368 16.9071 6.48239 17.6309 7.99896C18.1307 9.08469 18.1652 9.30873 18.1652 10.9804C18.1652 12.6521 18.1307 12.8761 17.6309 13.9619C16.9071 15.4957 15.5456 16.8571 14.0118 17.5809C12.9261 18.0807 12.7021 18.1152 11.0304 18.1324C9.41042 18.1324 9.11745 18.0807 8.20406 17.6499C4.37815 15.8576 2.77541 11.6181 4.49879 7.87832C4.89517 7.01663 4.99857 6.60302 4.87793 6.48239C4.05071 5.65517 2.75818 8.39534 2.75818 10.9804C2.75818 13.2553 3.5854 15.2544 5.17091 16.8399C6.25664 17.9256 7.42853 18.615 8.87617 18.9941C10.8925 19.5111 13.2536 19.2354 15.0631 18.2531C16.1833 17.6499 17.6999 16.1333 18.3031 15.0131C19.6301 12.5487 19.6301 9.41213 18.3031 6.9477C17.6999 5.8275 16.1833 4.31093 15.0631 3.70775C13.2536 2.74266 10.7719 2.44968 8.80724 2.98393Z" fill="#FE0149"/>
<path d="M10.7029 4.50054C10.5823 4.63841 10.5133 4.96585 10.5478 5.24159C10.5823 5.62073 10.6857 5.72413 11.0303 5.72413C11.375 5.72413 11.4784 5.62073 11.5129 5.24159C11.5646 4.77628 11.3061 4.25926 11.0303 4.25926C10.9614 4.25926 10.8063 4.36267 10.7029 4.50054Z" fill="#FE0149"/>
<path d="M5.06746 5.18986C4.89513 5.63794 5.1364 6.01708 5.55001 5.94815C5.84298 5.91368 5.94639 5.77581 5.94639 5.4656C5.94639 5.15539 5.84298 5.01752 5.55001 4.98305C5.32597 4.94859 5.11917 5.03476 5.06746 5.18986Z" fill="#FE0149"/>
<path d="M13.2363 7.99901C11.8059 9.42942 11.6853 9.51559 11.0304 9.49835C10.4444 9.48112 10.1859 9.36048 9.58274 8.7573C8.20404 7.39583 7.46298 8.15412 8.82445 9.55005C9.44487 10.1877 9.54827 10.3945 9.5138 10.946C9.47934 11.6353 9.68614 12.0145 10.2893 12.3247C11.4268 12.9451 12.7193 12.0317 12.5469 10.7392C12.5125 10.3773 12.771 10.0154 14.0118 8.77453C15.5629 7.20626 15.8386 6.63754 15.0803 6.53414C14.839 6.49967 14.2703 6.96499 13.2363 7.99901ZM11.3751 10.7392C11.5646 10.946 11.5474 11.0494 11.3234 11.2907C11.0476 11.5492 11.0131 11.5492 10.7374 11.2907C10.5134 11.0494 10.4961 10.946 10.6857 10.7392C10.8063 10.5841 10.9614 10.4634 11.0304 10.4634C11.0993 10.4634 11.2544 10.5841 11.3751 10.7392Z" fill="#FE0149"/>
<path d="M4.48153 10.7047C4.15409 11.1183 4.5677 11.5319 5.23982 11.463C5.6879 11.4285 5.77407 11.3423 5.77407 10.9804C5.77407 10.6185 5.6879 10.5323 5.23982 10.4979C4.91238 10.4634 4.6194 10.5496 4.48153 10.7047Z" fill="#FE0149"/>
<path d="M16.2694 10.7219C16.0971 11.17 16.3383 11.4974 16.8554 11.4974C17.5102 11.4974 17.8894 11.0838 17.5792 10.7219C17.4585 10.5841 17.1311 10.4634 16.8554 10.4634C16.5796 10.4634 16.3211 10.5668 16.2694 10.7219Z" fill="#FE0149"/>
<path d="M10.634 16.2539C10.41 16.478 10.5134 17.3052 10.7719 17.5292C11.1682 17.8567 11.5819 17.4258 11.5129 16.7709C11.4785 16.3918 11.3578 16.2195 11.1165 16.185C10.9097 16.1505 10.7029 16.185 10.634 16.2539Z" fill="#FE0149"/>
</svg>
