<svg width="166" height="61" viewBox="0 0 166 61" fill="none" xmlns="http://www.w3.org/2000/svg">
<g clip-path="url(#clip0_1_425)">
<path d="M20.9142 30.7951L14.1137 30.7743C12.7627 30.7705 12.6454 29.2738 11.9017 27.1829L10.9878 24.6209L7.62355 14.9917L5.99628 10.0001C5.49107 9.98687 5.38889 10.5432 5.38889 11.0824L5.39268 30.3258C5.30185 31.0846 0.544937 30.8916 0.00188446 30.3182V5.72948C0.613056 5.56297 1.20909 5.42484 1.72565 5.42674L9.20919 5.47404L12.6132 15.1468L13.7542 18.3938L14.6567 20.9444L15.4117 23.2169C15.7391 24.2065 16.1459 25.1148 16.5792 26.1536C17.319 25.6048 16.9236 25.094 16.9217 24.4885L16.9009 6.12306C16.9009 5.92249 17.3361 5.40781 17.5877 5.41349L21.8735 5.52324L21.8792 30.0988C21.8792 30.3542 21.1677 30.7951 20.916 30.7951H20.9142Z" fill="#F2F2F2"/>
<path d="M122.843 60.3262C121.841 60.5022 117.895 60.7633 117.648 59.9761L117.619 48.3658C117.619 47.9665 117.432 47.2721 117.377 46.8842C117.205 45.6467 116.261 44.9882 115.023 45.0677C114.614 45.0942 113.753 45.0791 113.422 45.2626C112.454 45.8038 111.814 47.0242 111.814 48.1444L111.806 59.4047C111.806 60.0613 111.422 60.5041 110.732 60.4984L106.853 60.4605C106.664 60.1635 106.395 59.5277 106.395 59.1511V42.5322C106.395 42.1216 106.711 41.1131 107.091 41.0563L109.869 40.9636C110.225 40.9522 110.872 41.1963 111.046 41.4499C111.492 42.0989 111.201 42.1784 111.47 43.5578C111.634 44.3979 113.4 40.1027 117.636 40.7157C121.407 41.2607 121.421 42.9428 122.346 43.5616C122.999 43.9968 123.053 42.3789 125.354 41.3004C128.382 39.8794 132.412 41.0242 133.547 44.3544C133.716 44.8463 134.075 45.9097 134.077 46.4358L134.115 59.4123C134.115 59.9951 133.356 60.4984 132.859 60.4965L129.744 60.4832C129.228 60.4813 128.715 59.961 128.715 59.4104L128.686 47.4651C128.685 46.6325 127.674 45.4178 126.953 45.1907C126.331 44.9958 125.226 45.0242 124.76 45.2456C123.298 45.9381 122.834 47.5219 122.836 48.9826L122.843 60.3281V60.3262Z" fill="#FE0149"/>
<path d="M13.6369 49.4349L6.28578 49.4519C5.99628 49.4519 5.61217 50.2277 5.61406 50.5475L5.64434 55.2552C5.64623 55.5712 6.41445 55.9458 6.72477 55.9439L15.9642 55.9364C16.2254 55.9364 16.88 56.3564 16.8819 56.6251L16.9046 59.4028C16.9084 59.9742 16.3635 60.4776 15.7996 60.4776L1.73511 60.4851C1.07853 60.4851 0.446545 60.2827 0.00188446 59.8475V35.5369C0.429515 35.1263 1.07475 34.9219 1.71808 34.9238L15.599 34.9276C16.1553 34.9276 16.6889 35.4422 16.687 35.9569L16.6776 38.4413C16.6757 38.9617 15.9321 39.4858 15.4023 39.4839L6.6926 39.4688C6.15144 39.4688 5.62352 39.9967 5.62352 40.4925V44.0232C5.62163 44.3676 6.14766 44.9069 6.46176 44.9069H13.6388C14.091 44.9069 14.5319 45.5351 14.5319 45.9041V48.4055C14.5281 48.8596 14.1932 49.4349 13.6388 49.4349H13.6369Z" fill="#FE0149"/>
<path d="M49.5862 19.8375L48.5361 16.4581L47.4802 13.1846C47.3819 12.88 47.257 12.3843 47.2399 12.1326C47.2229 11.8809 47.8644 11.5385 48.1217 11.5403L51.7206 11.546C52.6213 11.546 52.9789 12.2461 53.1208 12.9746C53.3441 14.1194 53.6317 15.1601 53.9098 16.2878L54.767 19.7599L55.7831 23.9246C55.9931 24.7855 56.0593 25.4762 56.47 26.375C57.2287 25.6541 57.4141 25.094 57.6147 24.2784L58.4586 20.8309L59.3688 16.9709L60.2373 13.283L61.066 9.77117L61.9875 5.86005C61.5202 4.92721 59.4293 5.36052 59.3385 4.69636C59.3101 4.48633 59.5618 4.00004 59.8002 3.8903C61.8759 2.93286 64.1749 1.6897 66.1749 0.410596C66.4133 0.25733 66.8258 -0.00189705 67.0434 0.00188729C67.3007 0.0075638 67.4786 0.543048 67.6527 0.83255L70.824 6.12117C70.9886 6.39553 71.297 6.76451 71.1948 6.97264C70.7085 7.96603 68.8542 6.53745 67.8495 7.13916L66.9242 9.90929L66.156 12.4353L65.2023 15.5555L64.2354 18.7155L63.3726 21.5234L62.5419 24.1895L61.6488 27.0107C61.1133 28.7061 61.0925 30.7894 59.3706 30.7913L54.1539 30.7951C53.3195 30.7951 52.7954 30.3201 52.574 29.5727L51.5427 26.0968L50.8275 23.7846L49.5881 19.8356L49.5862 19.8375Z" fill="#F2F2F2"/>
<path d="M37.6466 31.0221C33.1414 31.6049 28.9294 30.006 26.9767 25.6862C26.5907 24.8347 26.2406 23.9719 26.1384 23.0164C25.7732 19.6086 26.093 17.2225 28.1933 14.5262C30.6286 11.3984 35.0354 10.4145 38.8671 11.3984C41.764 12.1439 44.2579 14.1648 45.1718 17.0314C45.9608 19.5102 46.3676 22.0173 45.4745 24.4355C44.0743 28.2255 41.7564 30.4904 37.6466 31.0221ZM34.9541 27.024C37.4555 27.6579 39.2493 25.9833 39.9702 23.9795C40.7346 21.8602 40.5965 19.9113 39.834 17.8659C39.1395 16.0059 37.8018 14.933 35.7128 15.1563C34.6267 15.2717 33.393 15.4704 32.7327 16.547C32.4204 17.0579 31.7695 18.074 31.7128 18.6473C31.5652 20.1384 31.5519 21.514 31.6768 23.005C31.8206 24.7363 33.253 26.5907 34.956 27.0221L34.9541 27.024Z" fill="#F2F2F2"/>
<path d="M58.6421 52.8975C58.2637 56.364 55.6449 59.3517 52.3015 60.3016C49.9627 60.9657 47.5654 60.7197 45.2947 60.3356C43.9986 59.539 42.6362 59.1265 41.6807 58.0234C38.464 54.3147 37.9985 48.9845 40.6892 44.8123C42.956 41.2985 47.0147 40.2824 51.0924 40.8595C54.7442 41.3761 58.1994 44.7177 58.6175 48.3866C58.7859 49.8625 58.8048 51.3989 58.6402 52.8956L58.6421 52.8975ZM52.6912 54.3015C53.3308 53.1832 53.2759 51.9533 53.3232 50.7348C53.3857 49.1491 53.1473 47.8814 52.292 46.5152C51.3667 45.0355 49.5067 44.4111 47.8 44.8539C44.5568 45.694 43.9645 50.3071 44.7555 53.1832C45.4764 55.8115 47.4991 57.3952 50.1803 56.6516C51.1113 56.3924 52.0347 55.4519 52.6912 54.3015Z" fill="#FE0149"/>
<path d="M102.947 50.9429C103.031 54.9789 100.866 58.7727 96.8867 60.137C94.3342 61.0131 89.7778 61.0036 87.4561 59.276C86.4836 58.5513 85.5053 57.6734 84.8317 56.6857C82.7484 53.6374 82.5327 49.7168 84.0029 46.2333C85.195 43.4083 88.1146 41.2739 91.1989 40.8236C93.3219 40.5133 95.829 40.7006 97.689 41.6713C100.646 43.2134 101.055 44.1254 102.37 46.9807C102.944 48.2258 102.919 49.5465 102.947 50.9429ZM91.3332 56.4132C92.7694 57.2306 94.3966 56.8578 95.6852 55.8058C98.0693 53.8625 98.2604 48.0025 95.7703 45.6997C94.285 44.326 91.6359 44.3884 90.2868 45.7792C88.9055 47.204 88.4949 48.8899 88.5593 50.7196C88.6501 53.3422 88.9812 55.0754 91.3332 56.4132Z" fill="#FE0149"/>
<path d="M81.0171 30.7705C80.2072 30.7648 80.2356 28.7231 79.6036 28.6834C78.4135 28.6096 78.684 30.2709 75.5506 31.0051C72.2904 31.7676 68.2166 30.0004 67.6716 26.2501C67.3026 23.7089 68.8542 21.2301 71.4389 20.2784C73.7852 19.4137 76.4437 19.2188 79.0625 18.7684C79.5166 18.1137 79.3823 16.9652 78.9338 16.1402C78.6197 15.5631 77.6717 15.0352 76.8108 14.8346C75.053 14.4259 73.9498 15.8696 72.9527 17.0466C71.4749 17.372 69.7303 16.8081 68.419 16.038C69.6697 11.4817 75.6906 10.2991 79.7626 11.4457C81.6604 11.9812 83.2744 13.1335 83.9991 15.0673C84.3303 15.951 84.722 17.0314 84.7201 17.987L84.7011 26.2557C84.6955 29.1262 86.1411 29.3854 85.7021 30.358C85.617 30.5472 85.1628 30.7951 84.9282 30.7951L81.0171 30.7705ZM73.7038 27.0069C75.0076 27.8357 76.5818 27.6389 77.7909 26.848C79.509 25.7222 79.738 22.5528 79.1552 21.9378C78.9281 21.6975 78.2867 21.8527 77.8685 21.9473C75.4825 22.4865 72.9035 22.5755 72.9697 25.1753C72.9867 25.8679 73.1589 26.6607 73.7038 27.0088V27.0069Z" fill="#F2F2F2"/>
<path d="M150.494 60.171C147.837 59.1019 146.435 55.4652 147.975 52.6402C148.87 50.9978 150.443 50.0139 152.257 49.5446C154.072 49.0753 155.754 48.7802 157.652 48.6912C157.938 48.678 158.519 48.4925 158.704 48.3071C158.92 48.0914 159.035 47.4273 159.024 47.0961C158.98 45.8359 158.324 45.1756 157.213 44.6685C155.729 43.993 153.877 44.8085 153.016 46.2371C152.675 46.8009 151.86 46.9391 151.289 46.7745L148.891 46.0838L148.312 45.923C147.659 45.7432 148.808 42.7366 152.469 41.3212C157.482 39.3855 164.002 41.7489 164.117 46.2049L164.399 57.0887C164.428 58.1786 165.801 59.0811 165.128 60.3621C164.036 60.4832 161.094 60.6989 160.346 60.1653C160.03 59.9383 159.883 59.2325 159.692 58.7462L159.468 58.1805C159.177 57.4425 157.743 60.0291 156.193 60.3848C154.229 60.8352 152.212 60.8598 150.494 60.1672V60.171ZM158.52 55.2968C159.098 54.2164 159.186 52.6988 158.834 51.6525C157.569 51.4235 156.369 51.8398 155.203 52.0915C154.148 52.3204 153.376 52.6402 152.876 53.433C152.405 54.1804 152.246 55.4822 152.94 56.2031C154.513 57.8361 157.376 57.4425 158.519 55.2968H158.52Z" fill="#FE0149"/>
<path d="M69.893 45.2267C68.5174 45.6429 67.6508 47.2607 67.6432 48.6042L67.5789 60.3848L63.208 60.5154C62.892 60.5249 62.3792 59.9988 62.3792 59.5863L62.3905 41.6751C62.3905 41.3099 63.1853 40.9787 63.4785 40.9787L66.067 40.9939C67.4143 41.0014 67.2875 42.3865 67.5808 43.0526C67.8343 43.6278 68.9734 42.1311 69.1078 42.0402C69.7435 41.6107 70.7748 40.9863 71.5203 40.8633C73.9423 40.4641 76.0274 40.8028 77.8874 42.4111C78.9792 43.3553 79.6661 44.9901 79.6717 46.4679L79.7266 59.4047C79.7285 59.9667 79.2044 60.4776 78.6632 60.4794L75.613 60.4908C75.3103 60.4908 74.5477 60.1426 74.5459 59.8191L74.4456 48.0555C74.4361 46.8653 73.4976 45.5294 72.5042 45.2191C71.7984 44.9996 70.6991 44.9845 69.893 45.2285V45.2267Z" fill="#FE0149"/>
<path d="M31.2492 55.8493C31.8282 55.2968 32.2218 54.697 32.8027 53.9325C33.622 54.0006 36.5 54.9221 36.9333 55.3062C37.1509 55.4992 36.9238 56.2277 36.7573 56.4718L35.6731 58.0726C33.7279 60.943 28.3428 61.1814 25.2434 60.171C19.5953 58.3299 17.9926 51.1245 20.1724 45.9608C21.3266 43.2266 24.216 41.1698 27.0826 40.8198C28.4166 40.657 29.8225 40.6968 31.1886 40.8633C31.7203 40.9276 32.6305 41.3799 33.183 41.5937C35.4801 42.4849 38.1689 45.87 36.0969 46.4982L32.7762 47.5067C31.2 45.2891 29.7033 43.9135 27.1205 45.1718C24.0722 46.6571 23.6881 53.3459 26.4809 55.8777C27.8263 57.0981 29.7771 57.2514 31.2492 55.8474V55.8493Z" fill="#FE0149"/>
<path d="M142.936 60.4795L139.387 60.4757C139.088 60.4757 138.567 60.0443 138.427 59.8229L138.444 41.8321C138.444 41.4707 139.377 40.9863 139.777 40.9863H142.573C143.137 40.9863 143.637 41.4821 143.638 42.0705L143.646 59.6242C143.646 59.8815 143.222 60.4795 142.936 60.4795Z" fill="#FE0149"/>
<path d="M139.016 37.8207C137.886 36.5851 137.652 35.0468 138.866 33.815C140.081 32.5832 141.928 32.3315 143.194 33.5198C144.501 34.7478 144.401 36.7573 143.073 37.9986C141.794 39.1944 140.138 39.0487 139.016 37.8226V37.8207Z" fill="#FE0149"/>
</g>
<defs>
<clipPath id="clip0_1_425">
<rect width="165.313" height="60.716" fill="white"/>
</clipPath>
</defs>
</svg>
