<svg width="25" height="22" viewBox="0 0 25 22" fill="none" xmlns="http://www.w3.org/2000/svg">
<path d="M21.6725 0.289667C20.8706 0.709671 19.9924 1.58786 17.1097 4.85242C15.7161 6.41789 13.196 9.20518 11.4969 11.0188C9.79783 12.8325 8.27055 14.5507 8.09873 14.8561L7.77418 15.4098L5.75054 13.367C4.64326 12.2406 3.32597 11.0952 2.82961 10.8088C1.70324 10.1597 0.500503 10.1025 0.175955 10.6943C-0.205865 11.4197 0.0614093 13.3097 0.710504 14.7225C1.93233 17.338 5.00598 20.8698 6.57145 21.4616C8.72873 22.2825 10.0651 21.2707 14.9333 15.0661C16.0406 13.6534 18.427 10.6943 20.2406 8.47972C23.8297 4.08878 24.4407 3.11514 24.4407 1.81695C24.4407 1.11058 24.3452 0.900581 23.8488 0.480577C23.1806 -0.0921535 22.4934 -0.149426 21.6725 0.289667Z" fill="#FE0149"/>
</svg>
